<?xml version="1.0" encoding="utf-8"?>
<!-- Generator: Adobe Illustrator 24.0.3, SVG Export Plug-In . SVG Version: 6.00 Build 0)  -->
<svg version="1.1" id="Layer_1" xmlns="http://www.w3.org/2000/svg" xmlns:xlink="http://www.w3.org/1999/xlink" x="0px" y="0px"
	 viewBox="0 0 50.52 66.73" style="enable-background:new 0 0 345.52 66.73;" xml:space="preserve">
<style type="text/css">
	.st0{fill:#FFFFFF;}
</style>
<g>
	<g>
		<g>
			<path class="st0" d="M12.87,13.83c0,0,0,0.01,0.01,0.01c-0.16,0.07-0.32,0.14-0.47,0.21C4.51,17.87,1.9,28.81,6.57,38.48
				l28.61-13.83c0,0,0-0.01-0.01-0.01c0.16-0.07,0.32-0.14,0.47-0.21C43.54,20.61,46.16,9.67,41.48,0L12.87,13.83z"/>
			<path class="st0" d="M8.62,42.08c0,0,0,0.01,0.01,0.01c-0.16,0.07-0.32,0.14-0.47,0.21c-7.9,3.82-10.51,14.75-5.84,24.43
				l28.61-13.83c0,0,0-0.01-0.01-0.01c0.16-0.07,0.32-0.14,0.47-0.21c7.9-3.82,10.51-14.75,5.84-24.43L8.62,42.08z"/>
		</g>
	</g>
</g>
</svg>
